<?xml version="1.0" encoding="UTF-8"?>
<svg width="10px" height="8px" viewBox="0 0 10 8" version="1.1" xmlns="http://www.w3.org/2000/svg" xmlns:xlink="http://www.w3.org/1999/xlink">
    <!-- Generator: Sketch 47.1 (45422) - http://www.bohemiancoding.com/sketch -->
    <title>Fill 1</title>
    <desc>Created with Sketch.</desc>
    <defs></defs>
    <g id="Page-1" stroke="none" stroke-width="1" fill="none" fill-rule="evenodd">
        <g id="Product-page-1024px" transform="translate(-626.000000, -214.000000)" fill="#666666">
            <g id="Product-info-Copy" transform="translate(388.000000, -53.000000)">
                <g id="Color">
                    <g id="check" transform="translate(238.000000, 267.000000)">
                        <path d="M0.115307692,4.23073077 C0.0383846154,4.15380769 -7.69230769e-05,4.03842308 -7.69230769e-05,3.9615 C-7.69230769e-05,3.88457692 0.0383846154,3.76919231 0.115307692,3.69226923 L0.653769231,3.15380769 C0.807615385,2.99996154 1.03838462,2.99996154 1.19223077,3.15380769 L1.23069231,3.19226923 L3.34607692,5.4615 C3.423,5.53842308 3.53838462,5.53842308 3.61530769,5.4615 L8.76915385,0.115346154 L8.808,0.115346154 C8.96146154,-0.0385 9.19261538,-0.0385 9.34607692,0.115346154 L9.88453846,0.653807692 C10.0383846,0.807653846 10.0383846,1.03842308 9.88453846,1.19226923 L3.73069231,7.57688462 C3.65376923,7.65380769 3.57684615,7.69226923 3.46146154,7.69226923 C3.34607692,7.69226923 3.26915385,7.65380769 3.19223077,7.57688462 L0.192230769,4.34611538 L0.115307692,4.23073077 Z" id="Fill-1"></path>
                    </g>
                </g>
            </g>
        </g>
    </g>
</svg>